<?xml version="1.0" encoding="utf-8"?>
<!-- Generator: Adobe Illustrator 27.5.0, SVG Export Plug-In . SVG Version: 6.00 Build 0)  -->
<svg version="1.1" id="Camada_1" xmlns="http://www.w3.org/2000/svg" xmlns:xlink="http://www.w3.org/1999/xlink" x="0px" y="0px"
	 viewBox="0 0 2000 2000" style="enable-background:new 0 0 2000 2000;" xml:space="preserve">
<style type="text/css">
	.st0{fill:none;stroke:#C0081C;stroke-width:78;stroke-miterlimit:10;}
</style>
<g>
	<path class="st0" d="M698.8,343.8l-79,542c-4.6,31.3,34.7-0.4,64.3-12.2l215.8-85.9c29.3-11.7,60.6,12.2,56.7,43.2l-33.2,261.7
		c-2,15.6,5.2,30.9,18.6,39.5l219.5,145.4c25.6,16.5,60.1,0.6,64-29.2l65.2-546.2c2-15.2-4.8-30.3-17.7-39L763.2,316.1
		C737.9,298.9,703.2,313.8,698.8,343.8z"/>
	<path class="st0" d="M1279.5,949.5l423.6,328.9c24.2,18.5,20.8,55.8-6.2,69.7l-547.5,281.4c-14.5,7.4-32,5.7-44.7-4.4L671.6,1284
		c-24.6-19.6-14.6-58.3,14.4-70.5l212-88.3c12.8-5.4,27.4-4,39,3.7l224.2,149c25.5,17,60,1.3,64-29l31.1-234.3
		C1260.4,982.9,1254.2,930.1,1279.5,949.5z"/>
	<path class="st0" d="M406.6,996.2l489.5-205.3c29.2-12,60.8,17.4,57.1,48.8l-28.9,245.7c-1.7,14.5-15.1,29.3-28.5,35.2L681.5,1215
		c-27.7,12.2-33.4,49-10.7,69L849,1431.1c23,20.3,53.4,36.7,25.1,48.4l-486.2,208.4c-28.6,11.9-59.7-10.8-57.1-41.6l50.3-615.1
		C382.3,1015.6,392.2,1002.1,406.6,996.2z"/>
</g>
<g>
</g>
<g>
</g>
<g>
</g>
<g>
</g>
<g>
</g>
<g>
</g>
<g>
</g>
<g>
</g>
<g>
</g>
<g>
</g>
<g>
</g>
</svg>
